solid Atom Box Insert
facet normal 0.8944271909999162 0.4472135954999574 -4.716814891169813e-16
  outer loop
    vertex 175.26403540000217 163.11562499999422 53.86589910689214
    vertex 176.85153540000218 159.94062499999424 50.69089910689215
    vertex 175.26403540000217 163.11562499999422 50.690899106892125
  endloop
endfacet
facet normal 0.8944271909999162 0.4472135954999574 -4.716814891169813e-16
  outer loop
    vertex 176.85153540000218 159.94062499999424 50.69089910689215
    vertex 175.26403540000217 163.11562499999422 53.86589910689214
    vertex 176.85153540000218 159.94062499999424 53.86589910689212
  endloop
endfacet
facet normal 0.7071067811865476 0.7071067811865476 -7.457939178747932e-16
  outer loop
    vertex 197.47653540000218 110.7281249999942 53.86589910689219
    vertex 199.06403540000218 109.14062499999422 50.69089910689218
    vertex 197.47653540000218 110.72812499999422 50.69089910689218
  endloop
endfacet
facet normal 0.7071067811865476 0.7071067811865476 -7.457939178747932e-16
  outer loop
    vertex 199.06403540000218 109.14062499999422 50.69089910689218
    vertex 197.47653540000218 110.7281249999942 53.86589910689219
    vertex 199.06403540000218 109.1406249999942 53.8658991068922
  endloop
endfacet
facet normal 0.0 -1.0 1.0547118733938987e-15
  outer loop
    vertex 199.06403540000218 33.73437499999422 50.69089910689227
    vertex 129.23903540000217 33.73437499999422 53.86589910689226
    vertex 129.23903540000217 33.73437499999422 50.69089910689227
  endloop
endfacet
facet normal 0.0 -1.0 1.0547118733938987e-15
  outer loop
    vertex 129.23903540000217 33.73437499999422 53.86589910689226
    vertex 199.06403540000218 33.73437499999422 50.69089910689227
    vertex 199.06403540000218 33.73437499999422 53.86589910689226
  endloop
endfacet
facet normal 1.0 0.0 0.0
  outer loop
    vertex 199.06403540000218 109.1406249999942 53.8658991068922
    vertex 199.06403540000218 33.73437499999422 50.69089910689227
    vertex 199.06403540000218 109.14062499999422 50.69089910689218
  endloop
endfacet
facet normal 1.0 0.0 0.0
  outer loop
    vertex 199.06403540000218 33.73437499999422 50.69089910689227
    vertex 199.06403540000218 109.1406249999942 53.8658991068922
    vertex 199.06403540000218 33.73437499999422 53.86589910689226
  endloop
endfacet
facet normal -1.0 0.0 0.0
  outer loop
    vertex 129.23903540000217 33.73437499999422 53.86589910689226
    vertex 129.23903540000217 109.14062499999422 50.69089910689218
    vertex 129.23903540000217 33.73437499999422 50.69089910689227
  endloop
endfacet
facet normal -1.0 0.0 0.0
  outer loop
    vertex 129.23903540000217 109.14062499999422 50.69089910689218
    vertex 129.23903540000217 33.73437499999422 53.86589910689226
    vertex 129.23903540000217 109.1406249999942 53.8658991068922
  endloop
endfacet
facet normal -0.7071067811865476 0.7071067811865476 -7.457939178747932e-16
  outer loop
    vertex 129.23903540000217 109.1406249999942 53.8658991068922
    vertex 130.82653540000217 110.72812499999422 50.69089910689218
    vertex 129.23903540000217 109.14062499999422 50.69089910689218
  endloop
endfacet
facet normal -0.7071067811865476 0.7071067811865476 -7.457939178747932e-16
  outer loop
    vertex 130.82653540000217 110.72812499999422 50.69089910689218
    vertex 129.23903540000217 109.1406249999942 53.8658991068922
    vertex 130.82653540000217 110.7281249999942 53.86589910689219
  endloop
endfacet
facet normal 0.0 1.0 -1.0547118733938987e-15
  outer loop
    vertex 175.26403540000217 163.11562499999422 53.86589910689214
    vertex 153.03903540000218 163.11562499999422 50.690899106892125
    vertex 153.03903540000218 163.11562499999422 53.86589910689214
  endloop
endfacet
facet normal 0.0 1.0 -1.0547118733938987e-15
  outer loop
    vertex 153.03903540000218 163.11562499999422 50.690899106892125
    vertex 175.26403540000217 163.11562499999422 53.86589910689214
    vertex 175.26403540000217 163.11562499999422 50.690899106892125
  endloop
endfacet
facet normal 3.2721340824103726e-17 1.067075529683301e-15 1.0
  outer loop
    vertex 131.41484778295217 159.91357862461118 53.86589910689212
    vertex 151.45153540000217 159.94062499999424 53.86589910689212
    vertex 131.6202854000023 159.94062499999424 53.86589910689212
  endloop
endfacet
facet normal 3.2721340824103726e-17 1.067075529683301e-15 1.0
  outer loop
    vertex 151.45153540000217 159.94062499999424 53.86589910689212
    vertex 131.41484778295217 159.91357862461118 53.86589910689212
    vertex 176.85153540000218 159.94062499999424 53.86589910689212
  endloop
endfacet
facet normal 3.2721340824103726e-17 1.067075529683301e-15 1.0
  outer loop
    vertex 176.85153540000218 159.94062499999424 53.86589910689212
    vertex 131.41484778295217 159.91357862461118 53.86589910689212
    vertex 196.68278540000227 159.94062499999424 53.86589910689212
  endloop
endfacet
facet normal 3.2721340824103726e-17 1.067075529683301e-15 1.0
  outer loop
    vertex 196.68278540000227 159.94062499999424 53.86589910689212
    vertex 131.41484778295217 159.91357862461118 53.86589910689212
    vertex 196.8882230170524 159.91357862461118 53.86589910689212
  endloop
endfacet
facet normal 3.2721340824103726e-17 1.067075529683301e-15 1.0
  outer loop
    vertex 196.8882230170524 159.91357862461118 53.86589910689212
    vertex 131.41484778295217 159.91357862461118 53.86589910689212
    vertex 131.22341040000228 159.83428266424815 53.86589910689212
  endloop
endfacet
facet normal 3.2721340824103726e-17 1.067075529683301e-15 1.0
  outer loop
    vertex 196.8882230170524 159.91357862461118 53.86589910689212
    vertex 131.22341040000228 159.83428266424815 53.86589910689212
    vertex 197.07966040000233 159.83428266424812 53.86589910689212
  endloop
endfacet
facet normal 3.2721340824103726e-17 1.067075529683301e-15 1.0
  outer loop
    vertex 197.07966040000233 159.83428266424812 53.86589910689212
    vertex 131.22341040000228 159.83428266424815 53.86589910689212
    vertex 131.05901939243546 159.70814100756107 53.86589910689212
  endloop
endfacet
facet normal 3.2721340824103726e-17 1.067075529683301e-15 1.0
  outer loop
    vertex 197.07966040000233 159.83428266424812 53.86589910689212
    vertex 131.05901939243546 159.70814100756107 53.86589910689212
    vertex 197.2440514075691 159.70814100756104 53.86589910689212
  endloop
endfacet
facet normal 3.2721340824103726e-17 1.067075529683301e-15 1.0
  outer loop
    vertex 197.2440514075691 159.70814100756104 53.86589910689212
    vertex 131.05901939243546 159.70814100756107 53.86589910689212
    vertex 130.9328777357484 159.54374999999425 53.86589910689212
  endloop
endfacet
facet normal 3.2721340824103726e-17 1.067075529683301e-15 1.0
  outer loop
    vertex 197.2440514075691 159.70814100756104 53.86589910689212
    vertex 130.9328777357484 159.54374999999425 53.86589910689212
    vertex 197.3701930642562 159.54374999999425 53.86589910689212
  endloop
endfacet
facet normal 3.2721340824103726e-17 1.067075529683301e-15 1.0
  outer loop
    vertex 197.3701930642562 159.54374999999425 53.86589910689212
    vertex 130.9328777357484 159.54374999999425 53.86589910689212
    vertex 130.85358177538535 159.35231261704436 53.86589910689212
  endloop
endfacet
facet normal 3.2721340824103726e-17 1.067075529683301e-15 1.0
  outer loop
    vertex 197.3701930642562 159.54374999999425 53.86589910689212
    vertex 130.85358177538535 159.35231261704436 53.86589910689212
    vertex 197.44948902461923 159.35231261704436 53.86589910689212
  endloop
endfacet
facet normal 3.2721340824103726e-17 1.067075529683301e-15 1.0
  outer loop
    vertex 197.44948902461923 159.35231261704436 53.86589910689212
    vertex 130.85358177538535 159.35231261704436 53.86589910689212
    vertex 130.82653540000229 159.14687499999422 53.86589910689212
  endloop
endfacet
facet normal 3.2721340824103726e-17 1.067075529683301e-15 1.0
  outer loop
    vertex 197.44948902461923 159.35231261704436 53.86589910689212
    vertex 130.82653540000229 159.14687499999422 53.86589910689212
    vertex 197.47653540000218 158.74999999999508 53.86589910689212
  endloop
endfacet
facet normal 3.2721340824103726e-17 1.067075529683301e-15 1.0
  outer loop
    vertex 197.47653540000218 158.74999999999508 53.86589910689212
    vertex 130.82653540000229 159.14687499999422 53.86589910689212
    vertex 130.82653540000229 158.7499999999942 53.86589910689212
  endloop
endfacet
facet normal 3.2721340824103726e-17 1.067075529683301e-15 1.0
  outer loop
    vertex 197.47653540000218 158.74999999999508 53.86589910689212
    vertex 130.82653540000229 158.7499999999942 53.86589910689212
    vertex 197.47653540000218 110.7281249999942 53.86589910689219
  endloop
endfacet
facet normal 3.2721340824103726e-17 1.067075529683301e-15 1.0
  outer loop
    vertex 197.47653540000218 110.7281249999942 53.86589910689219
    vertex 130.82653540000229 158.7499999999942 53.86589910689212
    vertex 130.82653540000217 110.7281249999942 53.86589910689219
  endloop
endfacet
facet normal 3.2721340824103726e-17 1.067075529683301e-15 1.0
  outer loop
    vertex 197.47653540000218 110.7281249999942 53.86589910689219
    vertex 130.82653540000217 110.7281249999942 53.86589910689219
    vertex 129.23903540000217 109.1406249999942 53.8658991068922
  endloop
endfacet
facet normal 3.2721340824103726e-17 1.067075529683301e-15 1.0
  outer loop
    vertex 197.47653540000218 110.7281249999942 53.86589910689219
    vertex 129.23903540000217 109.1406249999942 53.8658991068922
    vertex 199.06403540000218 109.1406249999942 53.8658991068922
  endloop
endfacet
facet normal 3.2721340824103726e-17 1.067075529683301e-15 1.0
  outer loop
    vertex 199.06403540000218 109.1406249999942 53.8658991068922
    vertex 129.23903540000217 109.1406249999942 53.8658991068922
    vertex 129.23903540000217 33.73437499999422 53.86589910689226
  endloop
endfacet
facet normal 3.2721340824103726e-17 1.067075529683301e-15 1.0
  outer loop
    vertex 199.06403540000218 109.1406249999942 53.8658991068922
    vertex 129.23903540000217 33.73437499999422 53.86589910689226
    vertex 199.06403540000218 33.73437499999422 53.86589910689226
  endloop
endfacet
facet normal 3.2721340824103726e-17 1.067075529683301e-15 1.0
  outer loop
    vertex 151.45153540000217 159.94062499999424 53.86589910689212
    vertex 175.26403540000217 163.11562499999422 53.86589910689214
    vertex 153.03903540000218 163.11562499999422 53.86589910689214
  endloop
endfacet
facet normal 3.2721340824103726e-17 1.067075529683301e-15 1.0
  outer loop
    vertex 175.26403540000217 163.11562499999422 53.86589910689214
    vertex 151.45153540000217 159.94062499999424 53.86589910689212
    vertex 176.85153540000218 159.94062499999424 53.86589910689212
  endloop
endfacet
facet normal -1.4836307675099582e-17 -1.060438017840783e-15 -1.0
  outer loop
    vertex 196.8882230170524 159.91357862461115 50.69089910689215
    vertex 176.85153540000218 159.94062499999424 50.69089910689215
    vertex 196.68278540000227 159.94062499999424 50.69089910689215
  endloop
endfacet
facet normal -1.4836307675099582e-17 -1.060438017840783e-15 -1.0
  outer loop
    vertex 176.85153540000218 159.94062499999424 50.69089910689215
    vertex 196.8882230170524 159.91357862461115 50.69089910689215
    vertex 151.45153540000217 159.94062499999424 50.69089910689215
  endloop
endfacet
facet normal -1.4836307675099582e-17 -1.060438017840783e-15 -1.0
  outer loop
    vertex 151.45153540000217 159.94062499999424 50.69089910689215
    vertex 196.8882230170524 159.91357862461115 50.69089910689215
    vertex 131.6202854000023 159.94062499999424 50.69089910689215
  endloop
endfacet
facet normal -1.4836307675099582e-17 -1.060438017840783e-15 -1.0
  outer loop
    vertex 131.6202854000023 159.94062499999424 50.69089910689215
    vertex 196.8882230170524 159.91357862461115 50.69089910689215
    vertex 131.41484778295217 159.91357862461118 50.69089910689215
  endloop
endfacet
facet normal -1.4836307675099582e-17 -1.060438017840783e-15 -1.0
  outer loop
    vertex 131.41484778295217 159.91357862461118 50.69089910689215
    vertex 196.8882230170524 159.91357862461115 50.69089910689215
    vertex 131.22341040000228 159.83428266424812 50.69089910689215
  endloop
endfacet
facet normal -1.4836307675099582e-17 -1.060438017840783e-15 -1.0
  outer loop
    vertex 131.22341040000228 159.83428266424812 50.69089910689215
    vertex 196.8882230170524 159.91357862461115 50.69089910689215
    vertex 197.07966040000233 159.83428266424812 50.69089910689215
  endloop
endfacet
facet normal -1.4836307675099582e-17 -1.060438017840783e-15 -1.0
  outer loop
    vertex 131.22341040000228 159.83428266424812 50.69089910689215
    vertex 197.07966040000233 159.83428266424812 50.69089910689215
    vertex 197.2440514075691 159.70814100756107 50.69089910689215
  endloop
endfacet
facet normal -1.4836307675099582e-17 -1.060438017840783e-15 -1.0
  outer loop
    vertex 131.22341040000228 159.83428266424812 50.69089910689215
    vertex 197.2440514075691 159.70814100756107 50.69089910689215
    vertex 131.05901939243546 159.70814100756107 50.69089910689215
  endloop
endfacet
facet normal -1.4836307675099582e-17 -1.060438017840783e-15 -1.0
  outer loop
    vertex 131.05901939243546 159.70814100756107 50.69089910689215
    vertex 197.2440514075691 159.70814100756107 50.69089910689215
    vertex 197.3701930642562 159.54374999999425 50.69089910689213
  endloop
endfacet
facet normal -1.4836307675099582e-17 -1.060438017840783e-15 -1.0
  outer loop
    vertex 131.05901939243546 159.70814100756107 50.69089910689215
    vertex 197.3701930642562 159.54374999999425 50.69089910689213
    vertex 130.93287773574838 159.54374999999425 50.69089910689213
  endloop
endfacet
facet normal -1.4836307675099582e-17 -1.060438017840783e-15 -1.0
  outer loop
    vertex 130.93287773574838 159.54374999999425 50.69089910689213
    vertex 197.3701930642562 159.54374999999425 50.69089910689213
    vertex 197.44948902461923 159.35231261704436 50.69089910689213
  endloop
endfacet
facet normal -1.4836307675099582e-17 -1.060438017840783e-15 -1.0
  outer loop
    vertex 130.93287773574838 159.54374999999425 50.69089910689213
    vertex 197.44948902461923 159.35231261704436 50.69089910689213
    vertex 130.85358177538535 159.35231261704436 50.69089910689213
  endloop
endfacet
facet normal -1.4836307675099582e-17 -1.060438017840783e-15 -1.0
  outer loop
    vertex 130.85358177538535 159.35231261704436 50.69089910689213
    vertex 197.44948902461923 159.35231261704436 50.69089910689213
    vertex 197.47653540000218 158.74999999999505 50.69089910689213
  endloop
endfacet
facet normal -1.4836307675099582e-17 -1.060438017840783e-15 -1.0
  outer loop
    vertex 130.85358177538535 159.35231261704436 50.69089910689213
    vertex 197.47653540000218 158.74999999999505 50.69089910689213
    vertex 130.82653540000229 159.14687499999422 50.69089910689213
  endloop
endfacet
facet normal -1.4836307675099582e-17 -1.060438017840783e-15 -1.0
  outer loop
    vertex 130.82653540000229 159.14687499999422 50.69089910689213
    vertex 197.47653540000218 158.74999999999505 50.69089910689213
    vertex 130.82653540000229 158.7499999999942 50.69089910689213
  endloop
endfacet
facet normal -1.4836307675099582e-17 -1.060438017840783e-15 -1.0
  outer loop
    vertex 130.82653540000229 158.7499999999942 50.69089910689213
    vertex 197.47653540000218 158.74999999999505 50.69089910689213
    vertex 197.47653540000218 110.72812499999422 50.69089910689218
  endloop
endfacet
facet normal -1.4836307675099582e-17 -1.060438017840783e-15 -1.0
  outer loop
    vertex 130.82653540000229 158.7499999999942 50.69089910689213
    vertex 197.47653540000218 110.72812499999422 50.69089910689218
    vertex 130.82653540000217 110.72812499999422 50.69089910689218
  endloop
endfacet
facet normal -1.4836307675099582e-17 -1.060438017840783e-15 -1.0
  outer loop
    vertex 130.82653540000217 110.72812499999422 50.69089910689218
    vertex 197.47653540000218 110.72812499999422 50.69089910689218
    vertex 199.06403540000218 109.14062499999422 50.69089910689218
  endloop
endfacet
facet normal -1.4836307675099582e-17 -1.060438017840783e-15 -1.0
  outer loop
    vertex 130.82653540000217 110.72812499999422 50.69089910689218
    vertex 199.06403540000218 109.14062499999422 50.69089910689218
    vertex 129.23903540000217 109.14062499999422 50.69089910689218
  endloop
endfacet
facet normal -1.4836307675099582e-17 -1.060438017840783e-15 -1.0
  outer loop
    vertex 129.23903540000217 109.14062499999422 50.69089910689218
    vertex 199.06403540000218 109.14062499999422 50.69089910689218
    vertex 199.06403540000218 33.73437499999422 50.69089910689227
  endloop
endfacet
facet normal -1.4836307675099582e-17 -1.060438017840783e-15 -1.0
  outer loop
    vertex 129.23903540000217 109.14062499999422 50.69089910689218
    vertex 199.06403540000218 33.73437499999422 50.69089910689227
    vertex 129.23903540000217 33.73437499999422 50.69089910689227
  endloop
endfacet
facet normal -1.4836307675099582e-17 -1.060438017840783e-15 -1.0
  outer loop
    vertex 176.85153540000218 159.94062499999424 50.69089910689215
    vertex 153.03903540000218 163.11562499999422 50.690899106892125
    vertex 175.26403540000217 163.11562499999422 50.690899106892125
  endloop
endfacet
facet normal -1.4836307675099582e-17 -1.060438017840783e-15 -1.0
  outer loop
    vertex 153.03903540000218 163.11562499999422 50.690899106892125
    vertex 176.85153540000218 159.94062499999424 50.69089910689215
    vertex 151.45153540000217 159.94062499999424 50.69089910689215
  endloop
endfacet
facet normal -1.0 2.4149644634821603e-15 9.99200722162639e-16
  outer loop
    vertex 130.82653540000217 110.7281249999942 53.86589910689219
    vertex 130.82653540000229 158.7499999999942 50.69089910689213
    vertex 130.82653540000217 110.72812499999422 50.69089910689218
  endloop
endfacet
facet normal -1.0 2.4149644634821603e-15 9.99200722162639e-16
  outer loop
    vertex 130.82653540000229 158.7499999999942 50.69089910689213
    vertex 130.82653540000217 110.7281249999942 53.86589910689219
    vertex 130.82653540000229 158.7499999999942 53.86589910689212
  endloop
endfacet
facet normal -0.13052619222004747 0.9914448613738109 -8.319801761405119e-16
  outer loop
    vertex 131.6202854000023 159.94062499999424 53.86589910689212
    vertex 131.41484778295217 159.91357862461118 50.69089910689215
    vertex 131.41484778295217 159.91357862461118 53.86589910689212
  endloop
endfacet
facet normal -0.13052619222004747 0.9914448613738109 -8.319801761405119e-16
  outer loop
    vertex 131.41484778295217 159.91357862461118 50.69089910689215
    vertex 131.6202854000023 159.94062499999424 53.86589910689212
    vertex 131.6202854000023 159.94062499999424 50.69089910689215
  endloop
endfacet
facet normal 0.0 1.0 -1.0547118733938987e-15
  outer loop
    vertex 151.45153540000217 159.94062499999424 53.86589910689212
    vertex 131.6202854000023 159.94062499999424 50.69089910689215
    vertex 131.6202854000023 159.94062499999424 53.86589910689212
  endloop
endfacet
facet normal 0.0 1.0 -1.0547118733938987e-15
  outer loop
    vertex 131.6202854000023 159.94062499999424 50.69089910689215
    vertex 151.45153540000217 159.94062499999424 53.86589910689212
    vertex 151.45153540000217 159.94062499999424 50.69089910689215
  endloop
endfacet
facet normal 0.0 1.0 -1.0547118733938987e-15
  outer loop
    vertex 196.68278540000227 159.94062499999424 53.86589910689212
    vertex 176.85153540000218 159.94062499999424 50.69089910689215
    vertex 176.85153540000218 159.94062499999424 53.86589910689212
  endloop
endfacet
facet normal 0.0 1.0 -1.0547118733938987e-15
  outer loop
    vertex 176.85153540000218 159.94062499999424 50.69089910689215
    vertex 196.68278540000227 159.94062499999424 53.86589910689212
    vertex 196.68278540000227 159.94062499999424 50.69089910689215
  endloop
endfacet
facet normal 0.6087614290087526 0.7933533402912109 -1.2359738382623281e-15
  outer loop
    vertex 197.2440514075691 159.70814100756104 53.86589910689212
    vertex 197.07966040000233 159.83428266424812 50.69089910689215
    vertex 197.07966040000233 159.83428266424812 53.86589910689212
  endloop
endfacet
facet normal 0.6087614290087526 0.7933533402912109 -1.2359738382623281e-15
  outer loop
    vertex 197.07966040000233 159.83428266424812 50.69089910689215
    vertex 197.2440514075691 159.70814100756104 53.86589910689212
    vertex 197.2440514075691 159.70814100756107 50.69089910689215
  endloop
endfacet
facet normal 0.3826834323650657 0.923879532511297 -2.4747789081112912e-15
  outer loop
    vertex 197.07966040000233 159.83428266424812 53.86589910689212
    vertex 196.8882230170524 159.91357862461115 50.69089910689215
    vertex 196.8882230170524 159.91357862461118 53.86589910689212
  endloop
endfacet
facet normal 0.3826834323650657 0.923879532511297 -2.4747789081112912e-15
  outer loop
    vertex 196.8882230170524 159.91357862461115 50.69089910689215
    vertex 197.07966040000233 159.83428266424812 53.86589910689212
    vertex 197.07966040000233 159.83428266424812 50.69089910689215
  endloop
endfacet
facet normal 0.13052619222009068 0.9914448613738053 -1.9262685973011166e-15
  outer loop
    vertex 196.8882230170524 159.91357862461118 53.86589910689212
    vertex 196.68278540000227 159.94062499999424 50.69089910689215
    vertex 196.68278540000227 159.94062499999424 53.86589910689212
  endloop
endfacet
facet normal 0.13052619222009068 0.9914448613738053 -1.9262685973011166e-15
  outer loop
    vertex 196.68278540000227 159.94062499999424 50.69089910689215
    vertex 196.8882230170524 159.91357862461118 53.86589910689212
    vertex 196.8882230170524 159.91357862461115 50.69089910689215
  endloop
endfacet
facet normal -0.9238795325112832 0.38268343236509883 1.258762164379439e-15
  outer loop
    vertex 130.85358177538535 159.35231261704436 53.86589910689212
    vertex 130.93287773574838 159.54374999999425 50.69089910689213
    vertex 130.85358177538535 159.35231261704436 50.69089910689213
  endloop
endfacet
facet normal -0.9238795325112832 0.38268343236509883 1.258762164379439e-15
  outer loop
    vertex 130.93287773574838 159.54374999999425 50.69089910689213
    vertex 130.85358177538535 159.35231261704436 53.86589910689212
    vertex 130.9328777357484 159.54374999999425 53.86589910689212
  endloop
endfacet
facet normal 0.7933533402912287 0.6087614290087293 3.8862004911879995e-16
  outer loop
    vertex 197.2440514075691 159.70814100756107 50.69089910689215
    vertex 197.3701930642562 159.54374999999425 53.86589910689212
    vertex 197.3701930642562 159.54374999999425 50.69089910689213
  endloop
endfacet
facet normal 0.7933533402912287 0.6087614290087293 3.8862004911879995e-16
  outer loop
    vertex 197.3701930642562 159.54374999999425 53.86589910689212
    vertex 197.2440514075691 159.70814100756107 50.69089910689215
    vertex 197.2440514075691 159.70814100756104 53.86589910689212
  endloop
endfacet
facet normal -0.9914448613738127 0.130526192220035 1.7479513440077965e-15
  outer loop
    vertex 130.82653540000229 159.14687499999422 53.86589910689212
    vertex 130.85358177538535 159.35231261704436 50.69089910689213
    vertex 130.82653540000229 159.14687499999422 50.69089910689213
  endloop
endfacet
facet normal -0.9914448613738127 0.130526192220035 1.7479513440077965e-15
  outer loop
    vertex 130.85358177538535 159.35231261704436 50.69089910689213
    vertex 130.82653540000229 159.14687499999422 53.86589910689212
    vertex 130.85358177538535 159.35231261704436 53.86589910689212
  endloop
endfacet
facet normal -0.6087614290087128 0.7933533402912413 2.4461834018080714e-16
  outer loop
    vertex 131.22341040000228 159.83428266424815 53.86589910689212
    vertex 131.05901939243546 159.70814100756107 50.69089910689215
    vertex 131.05901939243546 159.70814100756107 53.86589910689212
  endloop
endfacet
facet normal -0.6087614290087128 0.7933533402912413 2.4461834018080714e-16
  outer loop
    vertex 131.05901939243546 159.70814100756107 50.69089910689215
    vertex 131.22341040000228 159.83428266424815 53.86589910689212
    vertex 131.22341040000228 159.83428266424812 50.69089910689215
  endloop
endfacet
facet normal -0.7933533402912434 0.60876142900871 7.836507888273664e-16
  outer loop
    vertex 130.9328777357484 159.54374999999425 53.86589910689212
    vertex 131.05901939243546 159.70814100756107 50.69089910689215
    vertex 130.93287773574838 159.54374999999425 50.69089910689213
  endloop
endfacet
facet normal -0.7933533402912434 0.60876142900871 7.836507888273664e-16
  outer loop
    vertex 131.05901939243546 159.70814100756107 50.69089910689215
    vertex 130.9328777357484 159.54374999999425 53.86589910689212
    vertex 131.05901939243546 159.70814100756107 53.86589910689212
  endloop
endfacet
facet normal -0.3826834323650954 0.9238795325112844 -3.0717531393063953e-16
  outer loop
    vertex 131.41484778295217 159.91357862461118 53.86589910689212
    vertex 131.22341040000228 159.83428266424812 50.69089910689215
    vertex 131.22341040000228 159.83428266424815 53.86589910689212
  endloop
endfacet
facet normal -0.3826834323650954 0.9238795325112844 -3.0717531393063953e-16
  outer loop
    vertex 131.22341040000228 159.83428266424812 50.69089910689215
    vertex 131.41484778295217 159.91357862461118 53.86589910689212
    vertex 131.41484778295217 159.91357862461118 50.69089910689215
  endloop
endfacet
facet normal -1.0 1.7133072785269137e-30 1.998401444325289e-15
  outer loop
    vertex 130.82653540000229 158.7499999999942 53.86589910689212
    vertex 130.82653540000229 159.14687499999422 50.69089910689213
    vertex 130.82653540000229 158.7499999999942 50.69089910689213
  endloop
endfacet
facet normal -1.0 1.7133072785269137e-30 1.998401444325289e-15
  outer loop
    vertex 130.82653540000229 159.14687499999422 50.69089910689213
    vertex 130.82653540000229 158.7499999999942 53.86589910689212
    vertex 130.82653540000229 159.14687499999422 53.86589910689212
  endloop
endfacet
facet normal -0.894427190999916 0.44721359549995765 -7.447602459741785e-17
  outer loop
    vertex 151.45153540000217 159.94062499999424 50.69089910689215
    vertex 153.03903540000218 163.11562499999422 53.86589910689214
    vertex 153.03903540000218 163.11562499999422 50.690899106892125
  endloop
endfacet
facet normal -0.894427190999916 0.44721359549995765 -7.447602459741785e-17
  outer loop
    vertex 153.03903540000218 163.11562499999422 53.86589910689214
    vertex 151.45153540000217 159.94062499999424 50.69089910689215
    vertex 151.45153540000217 159.94062499999424 53.86589910689212
  endloop
endfacet
facet normal 0.9238795325112613 0.3826834323651514 2.1243197887718718e-17
  outer loop
    vertex 197.3701930642562 159.54374999999425 53.86589910689212
    vertex 197.44948902461923 159.35231261704436 50.69089910689213
    vertex 197.3701930642562 159.54374999999425 50.69089910689213
  endloop
endfacet
facet normal 0.9238795325112613 0.3826834323651514 2.1243197887718718e-17
  outer loop
    vertex 197.44948902461923 159.35231261704436 50.69089910689213
    vertex 197.3701930642562 159.54374999999425 53.86589910689212
    vertex 197.44948902461923 159.35231261704436 53.86589910689212
  endloop
endfacet
facet normal 1.0 0.0 0.0
  outer loop
    vertex 197.47653540000218 158.74999999999508 53.86589910689212
    vertex 197.47653540000218 110.72812499999422 50.69089910689218
    vertex 197.47653540000218 158.74999999999505 50.69089910689213
  endloop
endfacet
facet normal 1.0 0.0 0.0
  outer loop
    vertex 197.47653540000218 110.72812499999422 50.69089910689218
    vertex 197.47653540000218 158.74999999999508 53.86589910689212
    vertex 197.47653540000218 110.7281249999942 53.86589910689219
  endloop
endfacet
facet normal 0.9989933278540302 0.044859011392701986 -3.1118314688342206e-16
  outer loop
    vertex 197.44948902461923 159.35231261704436 53.86589910689212
    vertex 197.47653540000218 158.74999999999505 50.69089910689213
    vertex 197.44948902461923 159.35231261704436 50.69089910689213
  endloop
endfacet
facet normal 0.9989933278540302 0.044859011392701986 -3.1118314688342206e-16
  outer loop
    vertex 197.47653540000218 158.74999999999505 50.69089910689213
    vertex 197.44948902461923 159.35231261704436 53.86589910689212
    vertex 197.47653540000218 158.74999999999508 53.86589910689212
  endloop
endfacet
endsolid Atom Box Insert
